<svg xmlns="http://www.w3.org/2000/svg" viewBox="0 0 213 69" width="64" height="64" role="img" aria-hidden>
  <g>
    <g>
      <path d="M175.355 1.66246L174.536 3.36546L172.867 3.59447C171.949 3.72047 171.11 3.84947 171.002 3.87947C170.844 3.92447 171.06 4.18946 172.139 5.27046L173.47 6.60547L173.178 8.38547C173.017 9.36547 172.913 10.1945 172.947 10.2285C172.981 10.2615 173.737 9.90747 174.627 9.44147L176.245 8.59247L177.831 9.42947C178.703 9.89047 179.454 10.2675 179.5 10.2675C179.624 10.2675 179.601 10.0555 179.284 8.26846L178.995 6.63347L180.329 5.30247C181.179 4.45447 181.616 3.94746 181.535 3.90446C181.464 3.86846 180.628 3.73247 179.678 3.60147L177.95 3.36546L177.126 1.70346C176.673 0.788461 176.273 0.0224731 176.238 0.000473147C176.203 -0.0215269 175.806 0.72646 175.355 1.66246Z" fill="#F59E0B"/>
      <path d="M164.953 7.44347L164.446 8.47346L163.447 8.60246L163.347 8.61543C162.696 8.69944 162.378 8.74042 162.338 8.86918C162.299 8.99181 162.511 9.19406 162.924 9.58891L162.992 9.65347L163.807 10.4325L163.626 11.5175C163.515 12.1812 163.441 12.4979 163.541 12.5695C163.641 12.6408 163.914 12.4696 164.496 12.1565L165.469 11.6335L166.454 12.1435C167.047 12.4512 167.325 12.6173 167.426 12.5431C167.525 12.4695 167.451 12.1595 167.338 11.5165L167.153 10.4625L167.964 9.64647C168.412 9.1962 168.65 8.9819 168.61 8.85802C168.567 8.72712 168.214 8.69716 167.469 8.59647L166.553 8.47346L166.036 7.44347C165.726 6.82496 165.607 6.51596 165.49 6.51647C165.373 6.51698 165.257 6.82598 164.953 7.44347Z" fill="#F59E0B"/>
      <path d="M176.106 15.3405C175.805 19.2165 175.504 23.4695 175.362 25.8385C175.269 27.3845 175.174 28.6695 175.15 28.6935C175.018 28.8255 168.137 28.2525 167.055 28.0195L167.036 28.0156L167.019 28.012C166.965 28.0012 166.921 27.9925 166.888 27.9692C166.752 27.8742 166.786 27.5357 166.96 25.815L166.989 25.5275C167.318 22.2795 168.604 18.3535 170.193 15.7455C170.899 14.5875 170.628 14.7135 169.859 15.9015C167.747 19.1655 166.617 22.5135 165.988 27.3765C165.931 27.8185 165.9 27.8665 165.697 27.8215C165.571 27.7935 164.859 27.6485 164.114 27.4985C162.685 27.2115 160.81 26.6765 159.814 26.2725L159.219 26.0315L159.246 25.1545C159.307 23.2385 159.843 20.5825 160.528 18.8055C160.886 17.8775 160.88 17.5565 160.52 18.3575C159.654 20.2795 159.056 22.3545 158.777 24.4005C158.681 25.1065 158.572 25.6835 158.536 25.6835C158.499 25.6835 158.188 25.5015 157.845 25.2795C155.724 23.9095 155.417 22.4425 156.835 20.4495C157.32 19.7675 157.049 19.8045 156.269 20.5265C155.244 21.4755 154.463 23.2945 153.907 26.0315C151.175 39.4565 161.487 52.3075 175.417 52.8395C190.476 53.4145 202.097 39.1655 198.286 24.7985C197.677 22.5015 197.028 21.2025 196.084 20.3945C195.351 19.7655 195.243 19.8515 195.78 20.6355C197.065 22.5125 196.608 24.1505 194.447 25.4175C194.416 25.4358 194.386 25.4533 194.358 25.4699L194.338 25.4821L194.336 25.4831C194.141 25.5993 194.03 25.6656 193.958 25.6361C193.862 25.5968 193.836 25.3884 193.776 24.9029C193.767 24.8378 193.759 24.7678 193.749 24.6925C193.489 22.6525 192.855 20.3585 192.063 18.5865C191.604 17.5595 191.581 17.7805 192.02 19.0135C192.44 20.1945 192.84 21.7295 193.013 22.8195C193.187 23.9125 193.329 25.9325 193.239 26.0255C192.889 26.3845 186.781 28.0205 186.571 27.8105C186.547 27.7865 186.463 27.2395 186.385 26.5945C185.901 22.6045 184.513 18.7205 182.494 15.7025C181.763 14.6105 181.711 14.7605 182.409 15.9455C183.947 18.5595 185.055 21.9395 185.465 25.2635C185.687 27.0665 185.68 27.9445 185.443 28.0165C184.883 28.1875 179.097 28.7045 177.745 28.7045H177.309L177.249 27.9495C177.216 27.5335 177.118 26.0225 177.032 24.5895C176.775 20.3285 176.332 14.5965 176.252 14.5065C176.211 14.4605 176.145 14.8355 176.106 15.3405Z" fill="#488ECB"/>
      <path d="M150.174 22.0735C148.704 22.5565 147.552 22.9905 147.505 23.0795C147.393 23.2905 146.99 25.3375 146.91 26.1025L146.846 26.7185L143.319 27.8925L139.792 29.0665V32.1995V35.3325L143.697 36.6235L147.602 37.9145L147.761 38.4915C148.395 40.7935 150.047 44.3785 151.434 46.4645L152.265 47.7145L150.238 51.7685L148.211 55.8215L150.408 58.0175L152.604 60.2135L156.931 58.0515L161.258 55.8885L163.051 56.7685C165.081 57.7655 166.325 58.2475 168.219 58.7685C168.941 58.9665 169.642 59.1625 169.778 59.2035C169.999 59.2695 170.185 59.7645 171.579 63.9905L173.133 68.7045H176.229H179.324L180.893 63.9905L182.462 59.2775L182.871 59.1575C183.097 59.0915 183.75 58.9105 184.323 58.7555C186.01 58.2985 187.539 57.7045 189.452 56.7625L191.247 55.8785L195.527 58.0385L199.807 60.1975L201.987 58.0195C203.186 56.8215 204.167 55.7955 204.167 55.7385C204.167 55.6815 203.272 53.8625 202.179 51.6955L200.192 47.7565L201.032 46.4735C202.535 44.1785 203.718 41.6855 204.524 39.1155L204.902 37.9125L208.805 36.6185L212.708 35.3245V32.1955V29.0665L209.185 27.8945L205.663 26.7215L205.485 25.5515C205.387 24.9085 205.226 24.0585 205.127 23.6645L204.948 22.9475L202.292 22.0785C200.831 21.6005 199.606 21.2075 199.569 21.2065C199.533 21.2055 199.711 21.8465 199.963 22.6305C205.131 38.6545 193.11 55.1625 176.276 55.1625C159.349 55.1625 147.213 38.4845 152.538 22.5435C152.784 21.8065 152.934 21.2085 152.873 21.2135C152.811 21.2185 151.596 21.6055 150.174 22.0735Z" fill="#13499D"/>
      <path d="M185.748 7.41747L185.218 8.47346L184.301 8.59647C184.214 8.60828 184.132 8.61913 184.055 8.62928C183.476 8.70587 183.197 8.74282 183.16 8.858C183.125 8.96541 183.301 9.14085 183.641 9.4799C183.689 9.52833 183.741 9.58009 183.796 9.63547L184.596 10.4405L184.434 11.3695C184.418 11.4593 184.403 11.5432 184.389 11.6215C184.289 12.1805 184.241 12.4518 184.338 12.5222C184.43 12.5885 184.65 12.4765 185.079 12.2589C185.144 12.2264 185.212 12.1915 185.286 12.1545L186.302 11.6435L187.271 12.1655C187.359 12.2128 187.44 12.2569 187.514 12.2974C187.929 12.5235 188.138 12.6372 188.22 12.5772C188.304 12.5165 188.258 12.2774 188.167 11.7962C188.15 11.7107 188.133 11.6176 188.114 11.5165L187.913 10.4235L188.722 9.66547L188.728 9.66021C189.186 9.23066 189.42 9.01147 189.379 8.8783C189.336 8.73954 188.993 8.69415 188.294 8.60147L188.286 8.60046L187.328 8.47447L186.803 7.41747L186.278 6.36147L185.748 7.41747Z" fill="#F59E0B"/>
      <path d="M157.555 12.5525L157.259 13.1705L156.598 13.2415C155.809 13.3255 155.804 13.3465 156.415 13.9105L156.893 14.3505L156.782 14.9845L156.778 15.0047C156.711 15.3872 156.677 15.5781 156.746 15.6273C156.814 15.6762 156.983 15.5845 157.321 15.4014L157.337 15.3925L157.917 15.0785L158.496 15.3925L158.518 15.4042C158.851 15.5846 159.019 15.6756 159.087 15.6269C159.156 15.5774 159.122 15.3836 159.053 14.9927L159.049 14.9705L158.935 14.3245L159.415 13.9015C160.033 13.3575 160.024 13.3255 159.235 13.2415L158.574 13.1705L158.278 12.5525L158.273 12.5431C158.095 12.1693 158.006 11.9825 157.916 11.9825C157.827 11.9825 157.738 12.1693 157.559 12.5431L157.555 12.5525Z" fill="#F59E0B"/>
    </g>
  </g>
</svg>
